<svg xmlns="http://www.w3.org/2000/svg" xmlns:xlink="http://www.w3.org/1999/xlink" version="1.1" id="2374880737" x="0px" y="0px" width="100%" height="100%" stroke-width="400000" stroke-opacity="1" viewBox="0 0 58.926 160" enable-background="new 0 0 58.926 160" xml:space="preserve" preserveAspectRatio="none" class="element svg-element" >
<path fill="#2A7259" d="M58.926,116.293V0H6.634L0,30.829h22.634V160h36.292v-43.512V116.293L58.926,116.293z M57.561,0.976  l-15.22,21.463c-0.194,0-0.39-0.195-0.585-0.195s-0.391,0-0.391,0L31.805,0.78h25.756V0.976z M47.219,137.561  c-0.195,0-0.195,0-0.391,0c-0.194,0-0.194,0-0.391,0l-6.828-17.365c0.391-0.194,0.586-0.391,0.779-0.78l17.172-2.536L47.219,137.561  z M47.805,91.512l-8.977,25.366l-1.756-32.194l5.464-26.928L47.805,91.512L47.805,91.512L47.805,91.512z M37.463,117.658  l-13.268-10.342l12.097-21.463l1.757,31.608C37.854,117.463,37.659,117.463,37.463,117.658z M41.952,56.78l-5.464,27.318  L24.39,78.634L41.952,56.78z M41.17,54.049l-16.78-2.537l16.78-25.171l1.171,26.927C41.756,53.463,41.366,53.854,41.17,54.049z   M40.391,25.171l0.194,0.195l-17.17,25.756V30.634L40.391,25.171z M40.975,55.024c0,0.39,0.195,0.585,0.392,0.976L23.61,78.049  V52.683L40.975,55.024z M35.708,84.878l-12.293,21.854V79.415L35.708,84.878z M37.073,118.635v0.194c0,0.194,0,0.585,0.194,0.78  l-13.658,8.781v-20.293L37.073,118.635z M45.463,137.951c-0.391,0.391-0.586,0.779-0.586,1.171c0,0.39,0.195,0.585,0.195,0.78  L24.78,156.488l13.66-36.098L45.463,137.951z M40.391,118.439c0-0.392-0.195-0.781-0.586-0.978l8.586-24.778l9.365,23.022  L40.391,118.439z M43.512,56.39L43.512,56.39l13.854,14.439l-8.78,18.927L43.512,56.39z M43.708,53.659  c-0.194,0-0.194-0.195-0.392-0.195l-1.17-27.708L57.17,44.488L43.708,53.659z M40.391,23.024C40.195,23.415,40,23.61,40,24.195  c0,0.195,0,0.195,0,0.39l-16.196,5.073l7.805-26.536L40.391,23.024z M1.171,29.659L7.219,1.951l15.024,27.902H1.171V29.659z   M7.805,0.976h23.218l-8.194,27.902L7.805,0.976z M23.61,129.561l14.049-8.975L23.61,158.049V129.561z M23.805,159.023  l22.245-18.146c0.194,0.195,0.39,0.195,0.779,0.195h0.194l10.732,18.146H23.805V159.023z M57.952,157.658l-10.146-17.17  c0.391-0.391,0.584-0.781,0.584-1.366c0-0.39-0.193-0.78-0.39-1.171l9.951-19.707V157.658z M57.952,113.756l-8.978-22.439  l8.978-19.511V113.756z M57.952,70.049L44.292,55.61c0-0.195,0.194-0.39,0.194-0.585c0-0.195,0-0.39-0.194-0.585l13.659-9.561  L57.952,70.049L57.952,70.049z M57.952,43.902L42.926,25.171l0,0l15.025,2.537L57.952,43.902L57.952,43.902z M57.952,26.732  l-14.636-2.537V24c0-0.39-0.194-0.585-0.391-0.976L57.952,1.951V26.732z" style="fill: red;"></path>
</svg>